<svg xmlns="http://www.w3.org/2000/svg" viewBox="0 0 960 600"><defs><linearGradient id="g" x2="0" y2="1"><stop stop-color="#111b3d"/><stop offset="1" stop-color="#702b5e"/></linearGradient></defs><rect width="960" height="600" fill="url(#g)"/><g fill="#ffe49c"><circle cx="130" cy="105" r="5"/><circle cx="270" cy="170" r="4"/><circle cx="770" cy="112" r="5"/><circle cx="840" cy="220" r="4"/><circle cx="655" cy="80" r="4"/><circle cx="190" cy="275" r="4"/></g><path d="M80 450h800v150H80z" fill="#170e23"/><path d="M140 450 260 170l120 280M820 450 700 170 580 450" fill="#f3cf78" opacity=".18"/><path d="M180 450v-95h65v95m470 0v-95h65v95" fill="#f3cf78"/><circle cx="480" cy="285" r="60" fill="#f3cf78"/><path d="M410 450v-95q70-75 140 0v95" fill="#f7eac6"/><text x="480" y="550" text-anchor="middle" fill="#fff" font-family="Georgia" font-size="31" letter-spacing="7">STAR NIGHT</text></svg>
